<mxfile host="app.diagrams.net" modified="2021-05-15T02:19:20.182Z" agent="5.0 (Windows NT 10.0; Win64; x64) AppleWebKit/537.36 (KHTML, like Gecko) Chrome/90.0.4430.212 Safari/537.36" etag="xQnEqDJCSbW__GCvMc-I" version="14.6.13" type="github">
  <diagram id="C5RBs43oDa-KdzZeNtuy" name="Page-1">
    <mxGraphModel dx="1303" dy="843" grid="1" gridSize="10" guides="1" tooltips="1" connect="1" arrows="1" fold="1" page="1" pageScale="1" pageWidth="827" pageHeight="1169" math="0" shadow="0">
      <root>
        <mxCell id="WIyWlLk6GJQsqaUBKTNV-0" />
        <mxCell id="WIyWlLk6GJQsqaUBKTNV-1" parent="WIyWlLk6GJQsqaUBKTNV-0" />
        <mxCell id="4qy7HBTq6U2g7OizQlbw-6" style="edgeStyle=orthogonalEdgeStyle;rounded=0;orthogonalLoop=1;jettySize=auto;html=1;entryX=0.5;entryY=0;entryDx=0;entryDy=0;" edge="1" parent="WIyWlLk6GJQsqaUBKTNV-1" source="4qy7HBTq6U2g7OizQlbw-0" target="4qy7HBTq6U2g7OizQlbw-1">
          <mxGeometry relative="1" as="geometry" />
        </mxCell>
        <mxCell id="4qy7HBTq6U2g7OizQlbw-0" value="INICIO" style="strokeWidth=2;html=1;shape=mxgraph.flowchart.terminator;whiteSpace=wrap;" vertex="1" parent="WIyWlLk6GJQsqaUBKTNV-1">
          <mxGeometry x="290" y="50" width="100" height="60" as="geometry" />
        </mxCell>
        <mxCell id="4qy7HBTq6U2g7OizQlbw-7" style="edgeStyle=orthogonalEdgeStyle;rounded=0;orthogonalLoop=1;jettySize=auto;html=1;entryX=0.5;entryY=0;entryDx=0;entryDy=0;entryPerimeter=0;" edge="1" parent="WIyWlLk6GJQsqaUBKTNV-1" source="4qy7HBTq6U2g7OizQlbw-1" target="4qy7HBTq6U2g7OizQlbw-2">
          <mxGeometry relative="1" as="geometry" />
        </mxCell>
        <mxCell id="4qy7HBTq6U2g7OizQlbw-1" value="NOME&lt;br&gt;CONTADOR = 1" style="rounded=1;whiteSpace=wrap;html=1;absoluteArcSize=1;arcSize=14;strokeWidth=2;" vertex="1" parent="WIyWlLk6GJQsqaUBKTNV-1">
          <mxGeometry x="230" y="160" width="220" height="80" as="geometry" />
        </mxCell>
        <mxCell id="4qy7HBTq6U2g7OizQlbw-8" style="edgeStyle=orthogonalEdgeStyle;rounded=0;orthogonalLoop=1;jettySize=auto;html=1;exitX=0.5;exitY=1;exitDx=0;exitDy=0;exitPerimeter=0;entryX=0.5;entryY=0;entryDx=0;entryDy=0;entryPerimeter=0;" edge="1" parent="WIyWlLk6GJQsqaUBKTNV-1" source="4qy7HBTq6U2g7OizQlbw-2" target="4qy7HBTq6U2g7OizQlbw-4">
          <mxGeometry relative="1" as="geometry" />
        </mxCell>
        <mxCell id="4qy7HBTq6U2g7OizQlbw-2" value="" style="verticalLabelPosition=bottom;verticalAlign=top;html=1;shape=mxgraph.flowchart.on-page_reference;" vertex="1" parent="WIyWlLk6GJQsqaUBKTNV-1">
          <mxGeometry x="327.5" y="290" width="25" height="30" as="geometry" />
        </mxCell>
        <mxCell id="4qy7HBTq6U2g7OizQlbw-9" style="edgeStyle=orthogonalEdgeStyle;rounded=0;orthogonalLoop=1;jettySize=auto;html=1;" edge="1" parent="WIyWlLk6GJQsqaUBKTNV-1" source="4qy7HBTq6U2g7OizQlbw-4" target="4qy7HBTq6U2g7OizQlbw-10">
          <mxGeometry relative="1" as="geometry">
            <mxPoint x="340" y="550" as="targetPoint" />
          </mxGeometry>
        </mxCell>
        <mxCell id="4qy7HBTq6U2g7OizQlbw-4" value="&quot;DIGITE UM NOME:&quot;" style="strokeWidth=2;html=1;shape=mxgraph.flowchart.display;whiteSpace=wrap;" vertex="1" parent="WIyWlLk6GJQsqaUBKTNV-1">
          <mxGeometry x="220" y="360" width="240" height="110" as="geometry" />
        </mxCell>
        <mxCell id="4qy7HBTq6U2g7OizQlbw-5" value="NOME" style="html=1;strokeWidth=2;shape=manualInput;whiteSpace=wrap;rounded=1;size=26;arcSize=11;" vertex="1" parent="WIyWlLk6GJQsqaUBKTNV-1">
          <mxGeometry x="240" y="535" width="190" height="100" as="geometry" />
        </mxCell>
        <mxCell id="4qy7HBTq6U2g7OizQlbw-12" style="edgeStyle=orthogonalEdgeStyle;rounded=0;orthogonalLoop=1;jettySize=auto;html=1;entryX=0.5;entryY=0;entryDx=0;entryDy=0;entryPerimeter=0;" edge="1" parent="WIyWlLk6GJQsqaUBKTNV-1" source="4qy7HBTq6U2g7OizQlbw-10">
          <mxGeometry relative="1" as="geometry">
            <mxPoint x="340" y="860" as="targetPoint" />
          </mxGeometry>
        </mxCell>
        <mxCell id="4qy7HBTq6U2g7OizQlbw-10" value="CONTADOR = CONTADOR + 1" style="rounded=1;whiteSpace=wrap;html=1;absoluteArcSize=1;arcSize=14;strokeWidth=2;" vertex="1" parent="WIyWlLk6GJQsqaUBKTNV-1">
          <mxGeometry x="250" y="700" width="180" height="70" as="geometry" />
        </mxCell>
        <mxCell id="4qy7HBTq6U2g7OizQlbw-15" style="edgeStyle=orthogonalEdgeStyle;rounded=0;orthogonalLoop=1;jettySize=auto;html=1;entryX=0;entryY=0.5;entryDx=0;entryDy=0;entryPerimeter=0;" edge="1" parent="WIyWlLk6GJQsqaUBKTNV-1" source="4qy7HBTq6U2g7OizQlbw-14" target="4qy7HBTq6U2g7OizQlbw-2">
          <mxGeometry relative="1" as="geometry">
            <Array as="points">
              <mxPoint x="120" y="910" />
              <mxPoint x="120" y="305" />
            </Array>
          </mxGeometry>
        </mxCell>
        <mxCell id="4qy7HBTq6U2g7OizQlbw-16" style="edgeStyle=orthogonalEdgeStyle;rounded=0;orthogonalLoop=1;jettySize=auto;html=1;" edge="1" parent="WIyWlLk6GJQsqaUBKTNV-1" source="4qy7HBTq6U2g7OizQlbw-14">
          <mxGeometry relative="1" as="geometry">
            <mxPoint x="330" y="1060" as="targetPoint" />
          </mxGeometry>
        </mxCell>
        <mxCell id="4qy7HBTq6U2g7OizQlbw-14" value="CONTADOR &amp;lt; 11&amp;nbsp;" style="strokeWidth=2;html=1;shape=mxgraph.flowchart.decision;whiteSpace=wrap;" vertex="1" parent="WIyWlLk6GJQsqaUBKTNV-1">
          <mxGeometry x="220" y="860" width="240" height="100" as="geometry" />
        </mxCell>
        <mxCell id="4qy7HBTq6U2g7OizQlbw-19" style="edgeStyle=orthogonalEdgeStyle;rounded=0;orthogonalLoop=1;jettySize=auto;html=1;entryX=0.5;entryY=0;entryDx=0;entryDy=0;entryPerimeter=0;" edge="1" parent="WIyWlLk6GJQsqaUBKTNV-1" source="4qy7HBTq6U2g7OizQlbw-17" target="4qy7HBTq6U2g7OizQlbw-18">
          <mxGeometry relative="1" as="geometry" />
        </mxCell>
        <mxCell id="4qy7HBTq6U2g7OizQlbw-17" value="&quot;FIM&quot;" style="strokeWidth=2;html=1;shape=mxgraph.flowchart.display;whiteSpace=wrap;" vertex="1" parent="WIyWlLk6GJQsqaUBKTNV-1">
          <mxGeometry x="280" y="1060" width="100" height="60" as="geometry" />
        </mxCell>
        <mxCell id="4qy7HBTq6U2g7OizQlbw-18" value="FIM" style="strokeWidth=2;html=1;shape=mxgraph.flowchart.terminator;whiteSpace=wrap;" vertex="1" parent="WIyWlLk6GJQsqaUBKTNV-1">
          <mxGeometry x="270" y="1200" width="100" height="60" as="geometry" />
        </mxCell>
      </root>
    </mxGraphModel>
  </diagram>
</mxfile>
